<?xml version="1.0" encoding="utf-8"?>
<!-- Svg Vector Icons : http://www.onlinewebfonts.com/icon -->
<!DOCTYPE svg PUBLIC "-//W3C//DTD SVG 1.1//EN" "http://www.w3.org/Graphics/SVG/1.1/DTD/svg11.dtd">
<svg version="1.1" fill="#c7d5ff" xmlns="http://www.w3.org/2000/svg" xmlns:xlink="http://www.w3.org/1999/xlink" x="0px" y="0px" viewBox="0 0 1000 1000" enable-background="new 0 0 1000 1000" xml:space="preserve">
<metadata> Svg Vector Icons : http://www.onlinewebfonts.com/icon </metadata>
<g><g transform="translate(0.000000,322.000000) scale(0.100000,-0.100000)"><path d="M386.1,3077.2c-122.5-55.1-245-217.4-272.5-361.3c-45.9-251.1-85.7-205.1,2125-2422l2069.9-2073l-2073-2076C1096.5-4994.2,150.3-5958.7,131.9-5995.5c-49-98-39.8-306.2,15.3-425.6c94.9-199,391.9-309.3,612.4-226.6c45.9,18.4,1022.7,961.5,2170.9,2097.5l2085.2,2063.8L7067.4-4541c1178.9-1178.9,2091.3-2069.9,2146.4-2094.4c416.4-180.7,835.9,266.4,633.8,670.6c-27.6,55.1-967.6,1019.7-2091.3,2143.4L5717-1773L7774.7,266.3C9991.5,2470.9,9933.4,2403.6,9884.4,2673c-55.1,297-425.6,474.6-701.2,336.8c-55.1-27.5-1010.5-961.5-2125-2073L5028.1-1090.2L2970.4,967.5C1837.4,2097.4,866.8,3043.5,811.7,3071.1C692.3,3129.3,514.7,3132.3,386.1,3077.2z"/></g></g>
</svg>