<?xml version="1.0" encoding="utf-8"?>
<!-- Svg Vector Icons : http://www.onlinewebfonts.com/icon -->
<!DOCTYPE svg PUBLIC "-//W3C//DTD SVG 1.1//EN" "http://www.w3.org/Graphics/SVG/1.1/DTD/svg11.dtd">
<svg fill="rgb(199, 213, 255)"  version="1.1" xmlns="http://www.w3.org/2000/svg" xmlns:xlink="http://www.w3.org/1999/xlink" x="0px" y="0px" viewBox="0 0 1000 1000" enable-background="new 0 0 1000 1000" xml:space="preserve">
<metadata> Svg Vector Icons : http://www.onlinewebfonts.com/icon </metadata>
<g><path   d="M385.7,571L111.4,845.3l-31.7-31.7c-11.9-11.9-25.2-8.3-29.6,7.9L11,967.3c-4.4,16.3,5.4,26,21.7,21.7l145.8-39.1c16.3-4.4,19.8-17.7,7.9-29.6l-31.7-31.7L429,614.3c12-12,12-31.4,0-43.3C417,559.1,397.6,559,385.7,571z"/><path d="M614.3,429l274.3-274.3l31.7,31.7c11.9,11.9,25.2,8.3,29.6-7.9l39-145.8c4.4-16.3-5.4-26-21.7-21.7L821.5,50.1c-16.3,4.4-19.8,17.7-7.9,29.6l31.7,31.7L571,385.7c-12,12-12,31.4,0,43.3C583,440.9,602.4,441,614.3,429z"/><path d="M989,967.3l-39.1-145.8c-4.4-16.3-17.7-19.8-29.6-7.9l-31.7,31.7L614.3,571c-12-12-31.3-12-43.3,0c-11.9,12-11.9,31.4,0,43.3l274.3,274.3l-31.7,31.7c-11.9,11.9-8.3,25.2,7.9,29.6L967.3,989C983.6,993.3,993.3,983.6,989,967.3z"/><path d="M50.1,178.5c4.4,16.3,17.7,19.8,29.6,7.9l31.7-31.7L385.7,429c12,12,31.3,12,43.3,0c11.9-12,11.9-31.4,0-43.3L154.7,111.4l31.7-31.7c11.9-11.9,8.3-25.2-7.9-29.6L32.7,11.1c-16.3-4.4-26,5.4-21.7,21.7L50.1,178.5z"/></g>
</svg>