<svg id="Layer_1" data-name="Layer 1" xmlns="http://www.w3.org/2000/svg" width="50.74" height="41.83" viewBox="0 0 50.74 41.83">
    <defs>
        <style>
        .cls-1 {
            fill: none;
            stroke: #0bc8f1;
            stroke-miterlimit: 10;
            stroke-width: 2px;
        }

        .cls-2 {
            fill: #0bc8f1;
        }

        .cls-3 {
            fill: #222;
        }
        </style>
    </defs>
    <title>logo</title>
    <g id="preset1">
        <g id="logo">
            <rect class="cls-1" x="7.21" y="7.21" width="27.58" height="27.58" transform="translate(20.91 -8.78) rotate(45)" />
            <polygon class="cls-2" points="12.06 17.76 8.91 20.91 12.06 24.06 12.06 27.06 5.91 20.91 12.06 14.76 12.06 17.76" />
            <polygon class="cls-2" points="27.06 29.76 20.91 35.91 14.76 29.76 17.76 29.76 20.91 32.91 24.06 29.76 27.06 29.76" />
            <polygon class="cls-2" points="27.06 12.06 24.06 12.06 20.91 8.91 17.76 12.06 14.76 12.06 20.91 5.91 27.06 12.06" />
            <polygon class="cls-2" points="35.91 20.91 29.76 27.06 29.76 24.06 32.91 20.91 29.76 17.76 29.76 14.76 35.91 20.91" />
            <path class="cls-2" d="M17,15.9h2v5.43A11.24,11.24,0,0,0,19.1,23a1.62,1.62,0,0,0,.62,1,2.15,2.15,0,0,0,1.34.37,2,2,0,0,0,1.3-.35,1.39,1.39,0,0,0,.53-.86,11.3,11.3,0,0,0,.09-1.7V15.9h2v5.26a13.53,13.53,0,0,1-.16,2.55,2.83,2.83,0,0,1-.6,1.26,3,3,0,0,1-1.18.82,5.12,5.12,0,0,1-1.93.3,5.54,5.54,0,0,1-2.18-.33,3.11,3.11,0,0,1-1.17-.86,2.76,2.76,0,0,1-.57-1.11,12.16,12.16,0,0,1-.2-2.54Z" transform="translate(-0.09 -0.09)" />
        </g>
        
    </g>
</svg>